<?xml version="1.0" encoding="iso-8859-1"?>
<!-- Generator: Adobe Illustrator 22.0.1, SVG Export Plug-In . SVG Version: 6.00 Build 0)  -->
<svg version="1.1" id="Layer_1" xmlns="http://www.w3.org/2000/svg" xmlns:xlink="http://www.w3.org/1999/xlink" x="0px" y="0px"
	 width="301.665px" height="427.245px" viewBox="0 0 301.665 427.245" enable-background="new 0 0 301.665 427.245"
	 xml:space="preserve">
<path fill="#FFFFFF" d="M10.931,81.361c-6.31,0-9.464-3.156-9.464-9.465V10.904c0-3.084,0.804-5.432,2.418-7.046
	c1.612-1.612,3.96-2.42,7.046-2.42h9.254c6.311,0,9.465,3.156,9.465,9.465v14.827H19.554V9.852h-7.992v62.886h7.992V56.964H29.65
	v14.931c0,3.087-0.806,5.435-2.418,7.047c-1.614,1.614-3.962,2.418-7.047,2.418H10.931z"/>
<path fill="#FFFFFF" d="M57.622,81.361l-6.205-34.072h-4.312v34.072H37.01V1.438H57.2c3.156,0,5.522,0.808,7.098,2.42
	c1.578,1.614,2.367,3.962,2.367,7.046v26.92c0,4.769-1.858,7.747-5.574,8.939l6.31,34.598H57.622z M56.57,9.852h-9.465v29.234h9.465
	V9.852z"/>
<path fill="#FFFFFF" d="M75.393,1.438h24.924v8.623H85.488v26.5h12.935v8.623H85.488v27.552h15.039v8.623H75.393V1.438z"/>
<path fill="#FFFFFF" d="M114.932,60.75l-1.998,20.611h-10.095l9.569-79.922h14.513l9.779,79.922h-10.515l-1.998-20.611H114.932z
	 M119.56,11.85l-3.89,40.277h7.782L119.56,11.85z"/>
<path fill="#FFFFFF" d="M156.68,9.852v71.509h-10.095V9.852h-9.569V1.438h29.236v8.413H156.68z"/>
<path fill="#FFFFFF" d="M172.243,1.438h24.924v8.623h-14.829v26.5h12.935v8.623h-12.935v27.552h15.039v8.623h-25.134V1.438z"/>
<path fill="#FFFFFF" d="M22.394,196.081l-6.205-34.072h-4.312v34.072H1.782v-79.922h20.191c3.156,0,5.522,0.808,7.098,2.42
	c1.578,1.614,2.367,3.962,2.367,7.046v26.92c0,4.769-1.858,7.747-5.574,8.939l6.31,34.598H22.394z M21.342,124.572h-9.465v29.234
	h9.465V124.572z"/>
<path fill="#FFFFFF" d="M40.165,116.159h24.924v8.623H50.26v26.5h12.935v8.623H50.26v27.552h15.039v8.623H40.165V116.159z"/>
<path fill="#FFFFFF" d="M79.705,175.47l-1.998,20.611H67.611l9.569-79.922h14.513l9.779,79.922H90.958L88.96,175.47H79.705z
	 M84.332,126.57l-3.89,40.277h7.782L84.332,126.57z"/>
<path fill="#FFFFFF" d="M107.467,196.081v-79.922h10.095v71.299h13.357v8.623H107.467z"/>
<path fill="#FFFFFF" d="M1.782,230.879h24.924v8.623H11.877v26.5h12.935v8.623H11.877v27.552h15.039v8.623H1.782V230.879z"/>
<path fill="#FFFFFF" d="M43.005,310.802c-6.31,0-9.464-3.156-9.464-9.465v-60.992c0-3.084,0.804-5.432,2.418-7.046
	c1.612-1.612,3.96-2.42,7.046-2.42h9.254c6.311,0,9.465,3.156,9.465,9.465v14.827H51.628v-15.879h-7.992v62.886h7.992v-15.773
	h10.095v14.931c0,3.087-0.806,5.435-2.418,7.047c-1.614,1.614-3.962,2.418-7.047,2.418H43.005z"/>
<path fill="#FFFFFF" d="M89.486,230.879c3.084,0,5.432,0.789,7.046,2.367c1.612,1.578,2.418,3.943,2.418,7.098v60.992
	c0,3.087-0.789,5.435-2.367,7.047c-1.576,1.614-3.943,2.418-7.097,2.418H78.233c-3.086,0-5.434-0.789-7.046-2.367
	c-1.614-1.576-2.418-3.943-2.418-7.098v-60.992c0-3.084,0.787-5.432,2.365-7.046c1.578-1.612,3.944-2.42,7.098-2.42H89.486z
	 M78.864,302.178h9.989v-62.676h-9.989V302.178z"/>
<path fill="#FFFFFF" d="M110.305,230.879h10.937l11.567,55.42v-55.42h9.149v79.922h-10.937l-11.567-54.578v54.578h-9.149V230.879z"
	/>
<path fill="#FFFFFF" d="M174.032,230.879c3.084,0,5.432,0.789,7.046,2.367c1.612,1.578,2.418,3.943,2.418,7.098v60.992
	c0,3.087-0.789,5.435-2.367,7.047c-1.576,1.614-3.943,2.418-7.097,2.418h-11.253c-3.086,0-5.434-0.789-7.046-2.367
	c-1.614-1.576-2.418-3.943-2.418-7.098v-60.992c0-3.084,0.787-5.432,2.365-7.046c1.578-1.612,3.944-2.42,7.098-2.42H174.032z
	 M163.411,302.178h9.99v-62.676h-9.99V302.178z"/>
<path fill="#FFFFFF" d="M211.886,310.802l-7.887-62.676v62.676h-9.149v-79.922h14.617l7.467,64.569l7.466-64.569h14.933v79.922
	h-9.569v-62.676l-7.887,62.676H211.886z"/>
<path fill="#FFFFFF" d="M251.006,230.879h10.095v79.922h-10.095V230.879z"/>
<path fill="#FFFFFF" d="M281.922,310.802c-6.31,0-9.464-3.156-9.464-9.465v-60.992c0-3.084,0.804-5.432,2.418-7.046
	c1.612-1.612,3.96-2.42,7.046-2.42h9.254c6.311,0,9.465,3.156,9.465,9.465v14.827h-10.095v-15.879h-7.992v62.886h7.992v-15.773
	h10.095v14.931c0,3.087-0.806,5.435-2.418,7.047c-1.614,1.614-3.962,2.418-7.047,2.418H281.922z"/>
<path fill="#FFFFFF" d="M22.288,345.6c6.31,0,9.465,3.156,9.465,9.465v60.992c0,3.087-0.789,5.435-2.367,7.047
	c-1.578,1.614-3.943,2.418-7.098,2.418H1.782V345.6H22.288z M21.658,354.223h-9.781v62.676h9.781V354.223z"/>
<path fill="#FFFFFF" d="M41.531,345.6h24.924v8.623H51.627v26.5h12.935v8.623H51.627v27.552h15.039v8.623H41.531V345.6z"/>
<path fill="#FFFFFF" d="M90.22,354.013h-7.887v26.71h8.833c6.31,0,9.465,3.156,9.465,9.465v25.868c0,6.31-3.156,9.465-9.465,9.465
	h-9.674c-3.087,0-5.435-0.789-7.047-2.367c-1.614-1.576-2.418-3.943-2.418-7.098v-13.565h10.095v14.617h8.413v-27.762h-8.833
	c-3.156,0-5.521-0.804-7.098-2.418c-1.578-1.612-2.367-3.96-2.367-7.046v-24.818c0-3.156,0.806-5.521,2.42-7.098
	c1.612-1.578,3.96-2.367,7.046-2.367h9.149c3.084,0,5.432,0.789,7.046,2.367c1.612,1.578,2.418,3.943,2.418,7.098v13.671H90.22
	V354.013z"/>
<path fill="#FFFFFF" d="M124.292,354.013v71.509h-10.095v-71.509h-9.569V345.6h29.236v8.413H124.292z"/>
<path fill="#FFFFFF" d="M139.855,345.6h10.095v79.922h-10.095V345.6z"/>
<path fill="#FFFFFF" d="M161.622,345.6h10.937l11.567,55.42V345.6h9.149v79.922h-10.937l-11.567-54.578v54.578h-9.149V345.6z"/>
<path fill="#FFFFFF" d="M211.466,425.522v-26.184L199.267,345.6h10.831l6.31,39.225l6.31-39.225h10.833l-12.199,53.738v26.184
	H211.466z"/>
</svg>
