<?xml version="1.0" encoding="iso-8859-1"?>
<!-- Generator: Adobe Illustrator 22.0.1, SVG Export Plug-In . SVG Version: 6.00 Build 0)  -->
<svg version="1.1" id="Layer_1" xmlns="http://www.w3.org/2000/svg" xmlns:xlink="http://www.w3.org/1999/xlink" x="0px" y="0px"
	 width="493.979px" height="186.652px" viewBox="0 0 493.979 186.652" enable-background="new 0 0 493.979 186.652"
	 xml:space="preserve">
<rect x="18.561" y="12.122" fill="#FFFFFF" width="457.098" height="159.191"/>
<g>
	<path fill="#FF681F" d="M-2.12-2.388v192.293h498.218V-2.388H-2.12z M76.514,70.577H61.579V47.085H49.755v93.035h11.824v-23.336
		h14.935v22.092c0,4.565-1.194,8.039-3.578,10.423c-2.387,2.387-5.861,3.578-10.423,3.578H48.821
		c-9.335,0-14.002-4.667-14.002-14.002V48.641c0-4.563,1.191-8.037,3.578-10.424c2.385-2.385,5.859-3.578,10.423-3.578h13.691
		c9.335,0,14.002,4.667,14.002,14.002V70.577z M115.563,152.878l-9.179-50.407h-6.379v50.407H85.07V34.639h29.872
		c4.667,0,8.167,1.194,10.5,3.578c2.334,2.387,3.501,5.861,3.501,10.424v39.828c0,7.054-2.75,11.462-8.246,13.224l9.335,51.185
		H115.563z M176.703,152.878h-37.183V34.639h36.872v12.757h-21.937v39.206h19.136v12.757h-19.136v40.761h22.248V152.878z
		 M228.977,138.876c0,4.565-1.167,8.039-3.501,10.423c-2.333,2.387-5.833,3.578-10.5,3.578h-30.338V34.639h30.338
		c9.335,0,14.002,4.667,14.002,14.002V138.876z M304.585,152.878h-14.157V60.154l-11.669,92.724h-14.779l-11.669-92.724v92.724
		h-13.536V34.639h21.626l11.046,95.524l11.046-95.524h22.091V152.878z M345.658,152.878l-2.957-30.493h-13.69l-2.957,30.493H311.12
		l14.158-118.239h21.469l14.468,118.239H345.658z M412.089,138.876c0,4.565-1.167,8.039-3.501,10.423
		c-2.333,2.387-5.833,3.578-10.5,3.578h-30.338V34.639h30.338c9.335,0,14.002,4.667,14.002,14.002V138.876z M459.071,152.878
		h-37.183V34.639h36.872v12.757h-21.937v39.206h19.136v12.757h-19.136v40.761h22.247V152.878z"/>
	<rect x="382.685" y="47.396" fill="#FF681F" width="14.469" height="92.724"/>
	<polygon fill="#FF681F" points="330.1,109.628 341.613,109.628 335.857,50.041 	"/>
	<rect x="199.572" y="47.396" fill="#FF681F" width="14.469" height="92.724"/>
	<rect x="100.005" y="47.085" fill="#FF681F" width="14.003" height="43.25"/>
</g>
</svg>
